<svg width="110" height="24" viewBox="0 0 110 24" fill="none" xmlns="http://www.w3.org/2000/svg">
<path d="M9.02375 22.648C10.0904 22.648 11.0291 22.36 11.8397 21.784C12.6717 21.208 13.0877 20.344 13.0877 19.192C13.0877 18.0187 12.6397 17.1227 11.7437 16.504C10.8691 15.8853 9.61042 15.352 7.96775 14.904C6.34642 14.4347 5.16242 14.0293 4.41575 13.688C3.69042 13.3467 2.99708 12.8987 2.33575 12.344C1.01308 11.2347 0.351749 9.51733 0.351749 7.192C0.351749 5.29333 1.02375 3.66133 2.36775 2.296C3.73308 0.930666 5.58908 0.247999 7.93575 0.247999C9.06642 0.247999 10.2397 0.418666 11.4557 0.759998C12.6931 1.08 13.4611 1.24 13.7597 1.24C14.0584 1.24 14.3251 1.02667 14.5597 0.599998H14.9117L15.1357 7.064H14.6237C13.5997 5.208 12.5224 3.72533 11.3917 2.616C10.2824 1.48533 9.06642 0.919998 7.74375 0.919998C6.44242 0.919998 5.42908 1.22933 4.70375 1.848C3.97842 2.44533 3.61575 3.256 3.61575 4.28C3.61575 5.28267 4.04242 6.06133 4.89575 6.616C5.77042 7.14933 6.83708 7.58667 8.09575 7.928C9.35442 8.26933 10.1757 8.504 10.5597 8.632C10.9651 8.76 11.4557 8.94133 12.0317 9.176C12.6291 9.38933 13.1091 9.624 13.4717 9.88C13.8557 10.1147 14.2504 10.424 14.6558 10.808C15.0824 11.1707 15.4131 11.576 15.6477 12.024C16.2237 13.048 16.5117 14.264 16.5117 15.672C16.5117 17.976 15.7864 19.832 14.3357 21.24C12.9064 22.6267 11.0184 23.32 8.67175 23.32C7.45575 23.32 6.05842 23.16 4.47975 22.84C2.92242 22.52 2.05842 22.36 1.88775 22.36C1.58908 22.36 1.30108 22.68 1.02375 23.32H0.575749L0.255749 15.704H0.799749C1.73842 17.56 2.93308 19.1813 4.38375 20.568C5.85575 21.9547 7.40242 22.648 9.02375 22.648ZM18.8432 0.599998H30.3632V1.304H26.9712V22.296H28.1233C29.9366 22.296 31.3766 21.7413 32.4432 20.632C33.5312 19.5227 34.6299 17.816 35.7393 15.512H36.4113L35.8032 23H18.8432V22.296H20.7312V1.304H18.8432V0.599998ZM53.3133 13.112V10.744C53.3133 6.84 53.1213 4.376 52.7373 3.352C52.3106 2.17867 51.7026 1.45333 50.9133 1.176C50.4653 1.00533 49.9213 0.919998 49.2813 0.919998C48.6413 0.919998 48.0866 1.00533 47.6173 1.176C47.1693 1.34667 46.7959 1.64533 46.4973 2.072C46.1986 2.49867 45.9533 2.94667 45.7613 3.416C45.5906 3.88533 45.4519 4.54667 45.3453 5.4C45.2173 6.63733 45.1533 8.46133 45.1533 10.872V13.176C45.1533 15.7787 45.2493 17.6347 45.4413 18.744C45.6546 19.832 45.9106 20.6107 46.2093 21.08C46.8706 22.1253 47.8946 22.648 49.2813 22.648C50.9666 22.648 52.0546 21.944 52.5453 20.536C53.0573 19.1067 53.3133 16.632 53.3133 13.112ZM49.2173 23.32C45.6546 23.32 42.9879 22.36 41.2173 20.44C39.4679 18.4987 38.5933 15.704 38.5933 12.056C38.5933 8.38667 39.5319 5.50667 41.4093 3.416C43.3079 1.304 45.9853 0.247999 49.4413 0.247999C52.8973 0.247999 55.4999 1.25067 57.2493 3.256C59.0199 5.24 59.9053 8.06667 59.9053 11.736C59.9053 15.4053 59.0093 18.2533 57.2173 20.28C55.4466 22.3067 52.7799 23.32 49.2173 23.32ZM77.6108 13.112V10.744C77.6108 6.84 77.4188 4.376 77.0348 3.352C76.6081 2.17867 76.0001 1.45333 75.2108 1.176C74.7628 1.00533 74.2188 0.919998 73.5788 0.919998C72.9388 0.919998 72.3841 1.00533 71.9148 1.176C71.4668 1.34667 71.0934 1.64533 70.7948 2.072C70.4961 2.49867 70.2508 2.94667 70.0588 3.416C69.8881 3.88533 69.7494 4.54667 69.6428 5.4C69.5148 6.63733 69.4508 8.46133 69.4508 10.872V13.176C69.4508 15.7787 69.5468 17.6347 69.7388 18.744C69.9521 19.832 70.2081 20.6107 70.5068 21.08C71.1681 22.1253 72.1921 22.648 73.5788 22.648C75.2641 22.648 76.3521 21.944 76.8428 20.536C77.3548 19.1067 77.6108 16.632 77.6108 13.112ZM73.5148 23.32C69.9521 23.32 67.2854 22.36 65.5148 20.44C63.7654 18.4987 62.8908 15.704 62.8908 12.056C62.8908 8.38667 63.8294 5.50667 65.7068 3.416C67.6054 1.304 70.2828 0.247999 73.7388 0.247999C77.1948 0.247999 79.7974 1.25067 81.5468 3.256C83.3174 5.24 84.2028 8.06667 84.2028 11.736C84.2028 15.4053 83.3068 18.2533 81.5148 20.28C79.7441 22.3067 77.0774 23.32 73.5148 23.32ZM86.6763 0.599998H96.4363V1.208H94.6763V11.32L94.9323 11.256L103.956 1.208H101.428V0.599998H107.028V1.208H105.108L99.6043 7.352L107.284 22.392H109.012V23H98.7403V22.392H100.244L94.9643 12.184L94.6763 12.248V22.392H96.4363V23H86.6763V22.392H88.4363V1.208H86.6763V0.599998Z" fill="black"/>
</svg>
